name p6_grf_mean_speed_1.2
datacolumns 13
datarows 40
range 0.0000000000 0.3900000000
endheader
time	grf_x_l_mean	grf_x_l_var	grf_y_l_mean	grf_y_l_var	grf_z_l_mean	grf_z_l_var	grf_x_r_mean	grf_x_r_var	grf_y_r_mean	grf_y_r_var	grf_z_r_mean	grf_z_r_var
0.0000000000	138.8681576032	1.0000000000	859.0943757574	1.0000000000	0.0000000000	0.0000000000	6.9332586350	1.0000000000	11.0270519259	1.0000000000	0.0000000000	0.0000000000
0.0100000000	148.7537061594	1.0000000000	845.3311314659	1.0000000000	0.0000000000	0.0000000000	17.3321236212	1.0000000000	49.8041376798	1.0000000000	0.0000000000	0.0000000000
0.0200000000	158.9209437692	1.0000000000	821.2445758472	1.0000000000	0.0000000000	0.0000000000	30.0357875222	1.0000000000	114.7666357253	1.0000000000	0.0000000000	0.0000000000
0.0300000000	168.3827046044	1.0000000000	784.0399451694	1.0000000000	0.0000000000	0.0000000000	34.3794412760	1.0000000000	200.8668520931	1.0000000000	0.0000000000	0.0000000000
0.0400000000	174.6070710300	1.0000000000	730.8131981461	1.0000000000	0.0000000000	0.0000000000	18.9349891922	1.0000000000	296.3481476462	1.0000000000	0.0000000000	0.0000000000
0.0500000000	175.4857037957	1.0000000000	660.2192210472	1.0000000000	0.0000000000	0.0000000000	-10.9820499776	1.0000000000	390.5261666533	1.0000000000	0.0000000000	0.0000000000
0.0600000000	169.3126454829	1.0000000000	573.5079501515	1.0000000000	0.0000000000	0.0000000000	-42.6522753730	1.0000000000	477.9758203582	1.0000000000	0.0000000000	0.0000000000
0.0700000000	153.6811817349	1.0000000000	474.8305068988	1.0000000000	0.0000000000	0.0000000000	-72.8911347467	1.0000000000	555.3059119120	1.0000000000	0.0000000000	0.0000000000
0.0800000000	128.1847517910	1.0000000000	371.3343810797	1.0000000000	0.0000000000	0.0000000000	-100.1649921286	1.0000000000	622.1628669106	1.0000000000	0.0000000000	0.0000000000
0.0900000000	97.4928418788	1.0000000000	272.6261923008	1.0000000000	0.0000000000	0.0000000000	-122.0505013093	1.0000000000	681.8584980080	1.0000000000	0.0000000000	0.0000000000
0.1000000000	65.7927129118	1.0000000000	187.1400995434	1.0000000000	0.0000000000	0.0000000000	-139.6232512439	1.0000000000	737.0686247988	1.0000000000	0.0000000000	0.0000000000
0.1100000000	38.5377354597	1.0000000000	119.7167635289	1.0000000000	0.0000000000	0.0000000000	-151.3687330358	1.0000000000	787.7098274402	1.0000000000	0.0000000000	0.0000000000
0.1200000000	18.7012148736	1.0000000000	72.0702740064	1.0000000000	0.0000000000	0.0000000000	-156.1282420825	1.0000000000	832.9829699317	1.0000000000	0.0000000000	0.0000000000
0.1300000000	6.2615018463	1.0000000000	41.3149154033	1.0000000000	0.0000000000	0.0000000000	-156.4085833892	1.0000000000	870.5581456482	1.0000000000	0.0000000000	0.0000000000
0.1400000000	0.7321630077	1.0000000000	21.4924493672	1.0000000000	0.0000000000	0.0000000000	-151.5273590195	1.0000000000	897.0475420432	1.0000000000	0.0000000000	0.0000000000
0.1500000000	-1.3420822414	1.0000000000	8.9372805881	1.0000000000	0.0000000000	0.0000000000	-142.4112063836	1.0000000000	911.5872868388	1.0000000000	0.0000000000	0.0000000000
0.1600000000	-1.8192830023	1.0000000000	2.2006381275	1.0000000000	0.0000000000	0.0000000000	-131.7904820207	1.0000000000	915.2500095495	1.0000000000	0.0000000000	0.0000000000
0.1700000000	0.0000000000	1.0000000000	0.0000000000	1.0000000000	0.0000000000	0.0000000000	-119.6536844427	1.0000000000	908.4062762152	1.0000000000	0.0000000000	0.0000000000
0.1800000000	0.0000000000	1.0000000000	0.0000000000	1.0000000000	0.0000000000	0.0000000000	-107.2780605940	1.0000000000	891.4853333833	1.0000000000	0.0000000000	0.0000000000
0.1900000000	0.0000000000	1.0000000000	0.0000000000	1.0000000000	0.0000000000	0.0000000000	-95.7651277140	1.0000000000	867.0626874720	1.0000000000	0.0000000000	0.0000000000
0.2000000000	0.0000000000	1.0000000000	0.0000000000	1.0000000000	0.0000000000	0.0000000000	-84.6257600782	1.0000000000	838.6264024162	1.0000000000	0.0000000000	0.0000000000
0.2100000000	0.0000000000	1.0000000000	0.0000000000	1.0000000000	0.0000000000	0.0000000000	-74.7061837035	1.0000000000	808.4504246107	1.0000000000	0.0000000000	0.0000000000
0.2200000000	-0.4416967952	1.0000000000	0.0708592073	1.0000000000	0.0000000000	0.0000000000	-65.6576300422	1.0000000000	778.4941270425	1.0000000000	0.0000000000	0.0000000000
0.2300000000	-0.0863178695	1.0000000000	0.2712089291	1.0000000000	0.0000000000	0.0000000000	-57.0436618335	1.0000000000	751.0895365282	1.0000000000	0.0000000000	0.0000000000
0.2400000000	-0.1093056404	1.0000000000	0.3082080542	1.0000000000	0.0000000000	0.0000000000	-49.6666218403	1.0000000000	727.9310637135	1.0000000000	0.0000000000	0.0000000000
0.2500000000	0.2239652467	1.0000000000	0.4119078049	1.0000000000	0.0000000000	0.0000000000	-43.0654994006	1.0000000000	710.2570190322	1.0000000000	0.0000000000	0.0000000000
0.2600000000	0.0795849720	1.0000000000	0.3368648988	1.0000000000	0.0000000000	0.0000000000	-36.9964161824	1.0000000000	698.0729159422	1.0000000000	0.0000000000	0.0000000000
0.2700000000	0.0000000000	1.0000000000	0.0000000000	1.0000000000	0.0000000000	0.0000000000	-31.4286203193	1.0000000000	690.2955567417	1.0000000000	0.0000000000	0.0000000000
0.2800000000	0.0000000000	1.0000000000	0.0000000000	1.0000000000	0.0000000000	0.0000000000	-26.0693896250	1.0000000000	687.0836509600	1.0000000000	0.0000000000	0.0000000000
0.2900000000	-0.2955741631	1.0000000000	0.0564335238	1.0000000000	0.0000000000	0.0000000000	-20.8992305264	1.0000000000	688.2561414501	1.0000000000	0.0000000000	0.0000000000
0.3000000000	-0.4421853476	1.0000000000	0.1377897130	1.0000000000	0.0000000000	0.0000000000	-15.5786484875	1.0000000000	691.5555845171	1.0000000000	0.0000000000	0.0000000000
0.3100000000	-0.4629711578	1.0000000000	0.1585499338	1.0000000000	0.0000000000	0.0000000000	-10.1577532500	1.0000000000	695.9678040936	1.0000000000	0.0000000000	0.0000000000
0.3200000000	-0.5105170249	1.0000000000	0.1844758004	1.0000000000	0.0000000000	0.0000000000	-4.8567084398	1.0000000000	701.9923340601	1.0000000000	0.0000000000	0.0000000000
0.3300000000	-0.3004796983	1.0000000000	0.0856899998	1.0000000000	0.0000000000	0.0000000000	0.6251159936	1.0000000000	709.0792868109	1.0000000000	0.0000000000	0.0000000000
0.3400000000	-0.1426221140	1.0000000000	0.0350134614	1.0000000000	0.0000000000	0.0000000000	6.0464380142	1.0000000000	716.3385424271	1.0000000000	0.0000000000	0.0000000000
0.3500000000	-0.1772539078	1.0000000000	0.0504107367	1.0000000000	0.0000000000	0.0000000000	11.4055930195	1.0000000000	723.6055805881	1.0000000000	0.0000000000	0.0000000000
0.3600000000	-0.1687005598	1.0000000000	0.0350960287	1.0000000000	0.0000000000	0.0000000000	16.8778977560	1.0000000000	731.2586207924	1.0000000000	0.0000000000	0.0000000000
0.3700000000	-0.2469387285	1.0000000000	0.1345539974	1.0000000000	0.0000000000	0.0000000000	22.3371684115	1.0000000000	739.5117276354	1.0000000000	0.0000000000	0.0000000000
0.3800000000	-0.3076092448	1.0000000000	0.2474495923	1.0000000000	0.0000000000	0.0000000000	28.2634944434	1.0000000000	747.5698204097	1.0000000000	0.0000000000	0.0000000000
0.3900000000	-0.2575138308	1.0000000000	0.2754522648	1.0000000000	0.0000000000	0.0000000000	34.8685306653	1.0000000000	755.2635196821	1.0000000000	0.0000000000	0.0000000000
